<mxfile host="65bd71144e">
    <diagram id="RYZoS1EnM3LIEuWCc8MQ" name="Page-1">
        <mxGraphModel dx="820" dy="613" grid="1" gridSize="10" guides="1" tooltips="1" connect="1" arrows="1" fold="1" page="1" pageScale="1" pageWidth="850" pageHeight="1100" math="0" shadow="0">
            <root>
                <mxCell id="0"/>
                <mxCell id="1" parent="0"/>
                <mxCell id="22" value="" style="rounded=0;whiteSpace=wrap;html=1;fontColor=#FFFFFF;" vertex="1" parent="1">
                    <mxGeometry x="40" y="10" width="680" height="280" as="geometry"/>
                </mxCell>
                <mxCell id="11" style="edgeStyle=none;html=1;exitX=0.25;exitY=1;exitDx=0;exitDy=0;entryX=0.5;entryY=0;entryDx=0;entryDy=0;fontColor=#FF0000;" parent="1" source="2" target="3" edge="1">
                    <mxGeometry relative="1" as="geometry"/>
                </mxCell>
                <mxCell id="15" style="edgeStyle=none;html=1;exitX=0.75;exitY=1;exitDx=0;exitDy=0;entryX=0.5;entryY=0;entryDx=0;entryDy=0;fontColor=#FF0000;" parent="1" source="2" target="4" edge="1">
                    <mxGeometry relative="1" as="geometry"/>
                </mxCell>
                <mxCell id="2" value="[0,1,2,3,&lt;font color=&quot;#ff0000&quot;&gt;4&lt;/font&gt;,5,6,7,8]" style="text;html=1;strokeColor=none;fillColor=none;align=center;verticalAlign=middle;whiteSpace=wrap;rounded=0;" parent="1" vertex="1">
                    <mxGeometry x="260" y="60" width="130" height="30" as="geometry"/>
                </mxCell>
                <mxCell id="13" style="edgeStyle=none;html=1;exitX=0.25;exitY=1;exitDx=0;exitDy=0;entryX=0.5;entryY=0;entryDx=0;entryDy=0;fontColor=#FF0000;" parent="1" source="3" target="5" edge="1">
                    <mxGeometry relative="1" as="geometry"/>
                </mxCell>
                <mxCell id="14" style="edgeStyle=none;html=1;exitX=0.75;exitY=1;exitDx=0;exitDy=0;entryX=0.5;entryY=0;entryDx=0;entryDy=0;fontColor=#FF0000;" parent="1" source="3" target="6" edge="1">
                    <mxGeometry relative="1" as="geometry"/>
                </mxCell>
                <mxCell id="3" value="[0,&lt;font color=&quot;#ff0000&quot;&gt;1&lt;/font&gt;&lt;font color=&quot;#ffffff&quot;&gt;,&lt;/font&gt;2,3]" style="text;html=1;strokeColor=none;fillColor=none;align=center;verticalAlign=middle;whiteSpace=wrap;rounded=0;" parent="1" vertex="1">
                    <mxGeometry x="110" y="130" width="130" height="30" as="geometry"/>
                </mxCell>
                <mxCell id="16" style="edgeStyle=none;html=1;exitX=0.25;exitY=1;exitDx=0;exitDy=0;entryX=0.5;entryY=0;entryDx=0;entryDy=0;fontColor=#FF0000;" parent="1" source="4" target="8" edge="1">
                    <mxGeometry relative="1" as="geometry"/>
                </mxCell>
                <mxCell id="18" style="edgeStyle=none;html=1;exitX=0.75;exitY=1;exitDx=0;exitDy=0;entryX=0.5;entryY=0;entryDx=0;entryDy=0;fontColor=#FF0000;" parent="1" source="4" target="9" edge="1">
                    <mxGeometry relative="1" as="geometry"/>
                </mxCell>
                <mxCell id="4" value="[5,&lt;font color=&quot;#ff0000&quot;&gt;6&lt;/font&gt;&lt;font color=&quot;#ffffff&quot;&gt;,&lt;/font&gt;7,8]" style="text;html=1;strokeColor=none;fillColor=none;align=center;verticalAlign=middle;whiteSpace=wrap;rounded=0;" parent="1" vertex="1">
                    <mxGeometry x="440" y="130" width="130" height="30" as="geometry"/>
                </mxCell>
                <mxCell id="5" value="[&lt;font color=&quot;#ff0000&quot;&gt;0&lt;/font&gt;]" style="text;html=1;strokeColor=none;fillColor=none;align=center;verticalAlign=middle;whiteSpace=wrap;rounded=0;" parent="1" vertex="1">
                    <mxGeometry x="10" y="190" width="130" height="30" as="geometry"/>
                </mxCell>
                <mxCell id="17" style="edgeStyle=none;html=1;exitX=0.75;exitY=1;exitDx=0;exitDy=0;entryX=0.5;entryY=0;entryDx=0;entryDy=0;fontColor=#FF0000;" parent="1" source="6" target="7" edge="1">
                    <mxGeometry relative="1" as="geometry"/>
                </mxCell>
                <mxCell id="6" value="[&lt;font color=&quot;#ff0000&quot;&gt;2&lt;/font&gt;&lt;font color=&quot;#ffffff&quot;&gt;,&lt;/font&gt;5]" style="text;html=1;strokeColor=none;fillColor=none;align=center;verticalAlign=middle;whiteSpace=wrap;rounded=0;" parent="1" vertex="1">
                    <mxGeometry x="180" y="190" width="130" height="30" as="geometry"/>
                </mxCell>
                <mxCell id="7" value="[&lt;font color=&quot;#ff0000&quot;&gt;3&lt;/font&gt;]" style="text;html=1;strokeColor=none;fillColor=none;align=center;verticalAlign=middle;whiteSpace=wrap;rounded=0;" parent="1" vertex="1">
                    <mxGeometry x="250" y="250" width="130" height="30" as="geometry"/>
                </mxCell>
                <mxCell id="8" value="[&lt;font color=&quot;#ff0000&quot;&gt;5&lt;/font&gt;]" style="text;html=1;strokeColor=none;fillColor=none;align=center;verticalAlign=middle;whiteSpace=wrap;rounded=0;" parent="1" vertex="1">
                    <mxGeometry x="380" y="190" width="130" height="30" as="geometry"/>
                </mxCell>
                <mxCell id="19" style="edgeStyle=none;html=1;exitX=0.75;exitY=1;exitDx=0;exitDy=0;entryX=0.5;entryY=0;entryDx=0;entryDy=0;fontColor=#FF0000;" parent="1" source="9" target="10" edge="1">
                    <mxGeometry relative="1" as="geometry"/>
                </mxCell>
                <mxCell id="9" value="[&lt;font color=&quot;#ff0000&quot;&gt;7&lt;/font&gt;&lt;font color=&quot;#ffffff&quot;&gt;,&lt;/font&gt;8]" style="text;html=1;strokeColor=none;fillColor=none;align=center;verticalAlign=middle;whiteSpace=wrap;rounded=0;" parent="1" vertex="1">
                    <mxGeometry x="550" y="190" width="130" height="30" as="geometry"/>
                </mxCell>
                <mxCell id="10" value="[&lt;font color=&quot;#ff0000&quot;&gt;8&lt;/font&gt;]" style="text;html=1;strokeColor=none;fillColor=none;align=center;verticalAlign=middle;whiteSpace=wrap;rounded=0;" parent="1" vertex="1">
                    <mxGeometry x="620" y="250" width="130" height="30" as="geometry"/>
                </mxCell>
                <mxCell id="20" value="SORTED ARRAYS INTO BALANCED HEIGHT TREE" style="text;html=1;strokeColor=none;fillColor=none;align=center;verticalAlign=middle;whiteSpace=wrap;rounded=0;fontColor=#FF0000;" parent="1" vertex="1">
                    <mxGeometry x="20" y="20" width="350" height="30" as="geometry"/>
                </mxCell>
            </root>
        </mxGraphModel>
    </diagram>
</mxfile>